<?xml version="1.0" encoding="utf-8"?>
<!-- Generator: Adobe Illustrator 16.0.0, SVG Export Plug-In . SVG Version: 6.00 Build 0)  -->
<!DOCTYPE svg PUBLIC "-//W3C//DTD SVG 1.1//EN" "http://www.w3.org/Graphics/SVG/1.1/DTD/svg11.dtd" [
	<!ENTITY ns_extend "http://ns.adobe.com/Extensibility/1.0/">
	<!ENTITY ns_ai "http://ns.adobe.com/AdobeIllustrator/10.0/">
	<!ENTITY ns_graphs "http://ns.adobe.com/Graphs/1.0/">
	<!ENTITY ns_vars "http://ns.adobe.com/Variables/1.0/">
	<!ENTITY ns_imrep "http://ns.adobe.com/ImageReplacement/1.0/">
	<!ENTITY ns_sfw "http://ns.adobe.com/SaveForWeb/1.0/">
	<!ENTITY ns_custom "http://ns.adobe.com/GenericCustomNamespace/1.0/">
	<!ENTITY ns_adobe_xpath "http://ns.adobe.com/XPath/1.0/">
]>
<svg version="1.1" id="Layer_1" xmlns:x="&ns_extend;" xmlns:i="&ns_ai;" xmlns:graph="&ns_graphs;"
	 xmlns="http://www.w3.org/2000/svg" xmlns:xlink="http://www.w3.org/1999/xlink" x="0px" y="0px" width="39.652px" height="39.5px"
	 viewBox="0 0 39.652 39.5" enable-background="new 0 0 39.652 39.5" xml:space="preserve">
<metadata>
	<sfw  xmlns="&ns_sfw;">
		<slices></slices>
		<sliceSourceBounds  width="39.5" height="39.5" x="-0.33" y="0.75" bottomLeftOrigin="true"></sliceSourceBounds>
	</sfw>
</metadata>
<g>
	<g>
		<path fill="#FFFFFF" d="M19.746,39.5c-10.89,0-19.75-8.859-19.75-19.75C-0.004,8.86,8.856,0,19.746,0
			c10.892,0,19.75,8.86,19.75,19.75C39.496,30.641,30.637,39.5,19.746,39.5z M19.746,3.5c-8.96,0-16.25,7.29-16.25,16.25
			S10.786,36,19.746,36s16.25-7.29,16.25-16.25S28.706,3.5,19.746,3.5z"/>
	</g>
	<g>
		<path fill="#FFFFFF" d="M19.746,30.811c-0.966,0-1.75-0.783-1.75-1.75V10.439c0-0.966,0.784-1.75,1.75-1.75
			c0.967,0,1.75,0.784,1.75,1.75v18.622C21.496,30.027,20.713,30.811,19.746,30.811z"/>
	</g>
	<g>
		<path fill="#FFFFFF" d="M29.057,21.5H10.436c-0.966,0-1.75-0.783-1.75-1.75c0-0.966,0.784-1.75,1.75-1.75h18.621
			c0.967,0,1.75,0.784,1.75,1.75C30.807,20.717,30.023,21.5,29.057,21.5z"/>
	</g>
</g>
</svg>
