<?xml version="1.0" encoding="utf-8"?>
<!-- Generator: Adobe Illustrator 16.0.0, SVG Export Plug-In . SVG Version: 6.00 Build 0)  -->
<!DOCTYPE svg PUBLIC "-//W3C//DTD SVG 1.1//EN" "http://www.w3.org/Graphics/SVG/1.1/DTD/svg11.dtd" [
	<!ENTITY ns_extend "http://ns.adobe.com/Extensibility/1.0/">
	<!ENTITY ns_ai "http://ns.adobe.com/AdobeIllustrator/10.0/">
	<!ENTITY ns_graphs "http://ns.adobe.com/Graphs/1.0/">
	<!ENTITY ns_vars "http://ns.adobe.com/Variables/1.0/">
	<!ENTITY ns_imrep "http://ns.adobe.com/ImageReplacement/1.0/">
	<!ENTITY ns_sfw "http://ns.adobe.com/SaveForWeb/1.0/">
	<!ENTITY ns_custom "http://ns.adobe.com/GenericCustomNamespace/1.0/">
	<!ENTITY ns_adobe_xpath "http://ns.adobe.com/XPath/1.0/">
]>
<svg version="1.1" id="Layer_1" xmlns:x="&ns_extend;" xmlns:i="&ns_ai;" xmlns:graph="&ns_graphs;"
	 xmlns="http://www.w3.org/2000/svg" xmlns:xlink="http://www.w3.org/1999/xlink" x="0px" y="0px" width="39.652px" height="39.5px"
	 viewBox="0 0 39.652 39.5" enable-background="new 0 0 39.652 39.5" xml:space="preserve">
<metadata>
	<sfw  xmlns="&ns_sfw;">
		<slices></slices>
		<sliceSourceBounds  width="39.381" height="39.381" x="-0.231" y="0.769" bottomLeftOrigin="true"></sliceSourceBounds>
	</sfw>
</metadata>
<g>
	<g>
		<g>
			<path d="M27.01,19.037c-2.337,0-4.238-1.9-4.238-4.236s1.901-4.236,4.238-4.236c2.335,0,4.234,1.9,4.234,4.236
				S29.344,19.037,27.01,19.037z M27.01,13.865c-0.518,0-0.938,0.42-0.938,0.936s0.42,0.937,0.938,0.937
				c0.515,0,0.934-0.42,0.934-0.937S27.524,13.865,27.01,13.865z"/>
		</g>
	</g>
	<g>
		<path d="M33.425,39.481H6.146c-3.337,0-6.051-2.715-6.051-6.051V6.153c0-3.337,2.714-6.053,6.051-6.053h27.279
			c3.336,0,6.051,2.715,6.051,6.053v27.278C39.475,36.767,36.76,39.481,33.425,39.481z M6.146,3.4c-1.517,0-2.751,1.235-2.751,2.753
			v27.278c0,1.517,1.234,2.75,2.751,2.75h27.279c1.517,0,2.75-1.233,2.75-2.75V6.153c0-1.518-1.233-2.753-2.75-2.753H6.146z"/>
	</g>
</g>
<g>
	<path d="M33.425,39.481H6.146c-3.337,0-6.051-2.715-6.051-6.051v-9.272c0-0.381,0.131-0.75,0.373-1.044l5.514-6.745
		c1.017-1.245,2.518-2.028,4.117-2.148c1.596-0.12,3.194,0.421,4.388,1.493l11.432,10.292c0.972,0.872,2.569,0.854,3.521-0.045
		l7.251-6.871c0.479-0.454,1.181-0.578,1.787-0.318c0.605,0.26,0.998,0.856,0.998,1.516v13.143
		C39.475,36.767,36.76,39.481,33.425,39.481z M3.394,24.747v8.684c0,1.517,1.234,2.75,2.751,2.75h27.279
		c1.517,0,2.75-1.233,2.75-2.75v-9.307l-4.465,4.231c-1.098,1.042-2.537,1.616-4.053,1.616c-1.458,0-2.858-0.537-3.944-1.512
		L12.281,18.168c-0.524-0.47-1.222-0.713-1.934-0.657c-0.704,0.053-1.363,0.397-1.811,0.946L3.394,24.747z"/>
</g>
</svg>
