<?xml version="1.0" encoding="utf-8"?>
<!-- Generator: Adobe Illustrator 16.0.0, SVG Export Plug-In . SVG Version: 6.00 Build 0)  -->
<!DOCTYPE svg PUBLIC "-//W3C//DTD SVG 1.1//EN" "http://www.w3.org/Graphics/SVG/1.1/DTD/svg11.dtd" [
	<!ENTITY ns_extend "http://ns.adobe.com/Extensibility/1.0/">
	<!ENTITY ns_ai "http://ns.adobe.com/AdobeIllustrator/10.0/">
	<!ENTITY ns_graphs "http://ns.adobe.com/Graphs/1.0/">
	<!ENTITY ns_vars "http://ns.adobe.com/Variables/1.0/">
	<!ENTITY ns_imrep "http://ns.adobe.com/ImageReplacement/1.0/">
	<!ENTITY ns_sfw "http://ns.adobe.com/SaveForWeb/1.0/">
	<!ENTITY ns_custom "http://ns.adobe.com/GenericCustomNamespace/1.0/">
	<!ENTITY ns_adobe_xpath "http://ns.adobe.com/XPath/1.0/">
]>
<svg version="1.1" id="Layer_1" xmlns:x="&ns_extend;" xmlns:i="&ns_ai;" xmlns:graph="&ns_graphs;"
	 xmlns="http://www.w3.org/2000/svg" xmlns:xlink="http://www.w3.org/1999/xlink" x="0px" y="0px" width="60px" height="60px"
	 viewBox="0 0 60 60" enable-background="new 0 0 60 60" xml:space="preserve">
<metadata>
	<sfw  xmlns="&ns_sfw;">
		<slices></slices>
		<sliceSourceBounds  height="57" width="57" x="-9.092" y="-48.5" bottomLeftOrigin="true"></sliceSourceBounds>
	</sfw>
</metadata>
<path fill="#FFFFFF" stroke="#FFFFFF" stroke-width="0.5" stroke-miterlimit="10" d="M46.788,58.25H12.027
	c-5.993,0-10.869-4.876-10.869-10.87V12.62c0-5.994,4.876-10.87,10.869-10.87H39.31c2.265,0,4.444,0.956,5.979,2.622L55.51,15.474
	c1.386,1.505,2.148,3.46,2.148,5.506v26.4C57.658,53.374,52.782,58.25,46.788,58.25z M12.027,5.745
	c-3.791,0-6.874,3.084-6.874,6.875v34.76c0,3.791,3.083,6.875,6.874,6.875h34.761c3.791,0,6.875-3.084,6.875-6.875v-26.4
	c0-1.04-0.388-2.035-1.093-2.8L42.35,7.079c-0.779-0.849-1.888-1.334-3.04-1.334H12.027z"/>
<path fill="#FFFFFF" stroke="#FFFFFF" stroke-width="0.5" stroke-miterlimit="10" d="M35.22,21.398H23.595
	c-2.967,0-5.382-2.415-5.382-5.383V3.747c0-1.103,0.895-1.997,1.997-1.997h18.395c1.104,0,1.998,0.895,1.998,1.997v12.269
	C40.603,18.983,38.188,21.398,35.22,21.398z M22.208,5.745v10.271c0,0.766,0.623,1.388,1.387,1.388H35.22
	c0.766,0,1.389-0.622,1.389-1.388V5.745H22.208z"/>
<path fill="#FFFFFF" stroke="#FFFFFF" stroke-width="0.5" stroke-miterlimit="10" d="M44.103,42.984v13.269
	c0,1.103-0.895,1.997-1.998,1.997H16.71c-1.103,0-1.997-0.895-1.997-1.997V42.984c0-2.968,2.415-5.383,5.382-5.383H38.72
	C41.688,37.602,44.103,40.017,44.103,42.984z M40.108,54.255V42.984c0-0.766-0.623-1.388-1.389-1.388H20.095
	c-0.764,0-1.387,0.622-1.387,1.388v11.271H40.108z"/>
</svg>
